<svg xmlns="http://www.w3.org/2000/svg" viewBox="0 0 220 72" role="img" aria-labelledby="amazonTitle">
  <title id="amazonTitle">Amazon</title>
  <path fill="#151515" d="M78.8 27.6c0 3.1.1 5.7 1 8.2.3.8.2 1.7-.5 2.2l-4.2 3.5c-.6.5-1.5.5-2.1-.2-2.9-3.1-3.4-4.6-5-7.6-4.8 4.9-8.2 6.4-14.4 6.4-7.3 0-13-4.5-13-13.5 0-7 3.8-11.8 9.2-14.1 4.7-2.1 11.2-2.4 16.2-3v-.9c0-1.7.1-3.8-.9-5.3-.9-1.4-2.7-2-4.3-2-2.9 0-5.5 1.5-6.1 4.6-.1.7-.7 1.4-1.4 1.4l-8.4-.9c-.7-.2-1.5-.8-1.3-1.8C45.5-4.2 53.3-7 61.8-7c4.3 0 10 .9 13.4 3.5 4.3 3.4 3.9 8 3.9 13v18.1h-.3Zm-12.8-10.6c-6.1 0-12.5 1.3-12.5 8.5 0 3.6 1.9 6.1 5.1 6.1 2.4 0 4.5-1.5 5.9-3.8 1.7-2.8 1.6-5.4 1.6-8.6V17h-.1ZM102.4 40.9h-8.6c-.8-.1-1.4-.7-1.5-1.5V-4.2c0-.9.7-1.6 1.6-1.6h8c.8 0 1.4.6 1.5 1.4v5.7h.2c2.1-5.5 6.1-8.1 11.4-8.1 5.4 0 8.8 2.6 11.2 8.1 2.1-5.5 6.9-8.1 12.1-8.1 3.6 0 7.6 1.5 10 4.9 2.7 3.8 2.1 9.3 2.1 14.1v27.3c0 .9-.7 1.6-1.6 1.6h-8.6c-.8-.1-1.5-.8-1.5-1.6v-23c0-1.8.2-6.4-.2-8.1-.7-2.8-2.4-3.6-4.8-3.6-2 0-4.1 1.3-5 3.5-.8 2.2-.7 5.8-.7 8.2v23c0 .9-.7 1.6-1.6 1.6h-8.6c-.8-.1-1.5-.8-1.5-1.6v-23c0-4.8.8-11.8-5-11.8-5.9 0-5.7 6.9-5.7 11.8v23c0 .9-.7 1.6-1.6 1.6ZM177.6-7c12.8 0 19.7 11 19.7 24.9 0 13.5-7.7 24.1-19.7 24.1-12.5 0-19.4-11-19.4-24.6C158.2 3.7 165.1-7 177.6-7Zm.1 9c-6.4 0-6.8 8.7-6.8 14.1s-.1 16.9 6.7 16.9 7.1-9.3 7.1-15c0-3.7-.2-8.2-1.3-11.7-.9-3-2.8-4.3-5.7-4.3Z"/>
  <path fill="#151515" d="M25.4 41.2h-8.7c-.8-.1-1.5-.8-1.5-1.6V-4.1c.1-.8.8-1.5 1.7-1.5h8.1c.8 0 1.4.6 1.5 1.4v6.7h.2C29.1-3.5 32.4-7 38.1-7c.8 0 1.5.7 1.5 1.6v8.2c0 .8-.7 1.5-1.6 1.5-3.8-.2-6.4 1.8-8 5.1-1.4 2.9-1.4 7.4-1.4 10.7v19.5c0 .9-.7 1.6-1.6 1.6h-1.6Z"/>
  <path fill="#F39E7C" d="M178.7 58.4c-38.4 17.4-87.8 13.8-124.8-5.5-2.4-1.2-.3-3.9 2.2-2.7 39.9 18.4 83.5 20.1 120.4 4.8 3.6-1.5 5.7 1.8 2.2 3.4Z"/>
  <path fill="#F39E7C" d="M190.1 50.5c-2.9-3.7-19.4-1.8-26.8-.9-2.2.3-2.6-1.7-.6-3.1 13-9.1 34.2-6.5 36.7-3.4 2.5 3.1-.7 24.4-12.8 34.5-1.9 1.6-3.6.7-2.8-1.3 2.6-6.9 9.2-22.1 6.3-25.8Z"/>
</svg>
