<svg xmlns="http://www.w3.org/2000/svg" viewBox="0 0 190 72" role="img" aria-labelledby="uzumTitle">
  <title id="uzumTitle">Uzum</title>
  <circle cx="36" cy="36" r="26" fill="none" stroke="#151515" stroke-width="8"/>
  <path fill="#151515" d="M27.5 19.8h8.7v18.7c0 4.8 2.4 7.8 6.8 7.8s6.8-3 6.8-7.8V19.8h8.7v19.1c0 9.8-6.1 15.6-15.5 15.6s-15.5-5.8-15.5-15.6V19.8Zm54 33.6v-6.2l20.9-21H82.2v-7h31.7v6.2L93.1 46.5h21.6v6.9H81.5Zm39.6-34.2h8.3v19.7c0 5 2.2 7.5 6.2 7.5s6.3-2.5 6.3-7.5V19.2h8.3v20.3c0 9.3-5.7 14.9-14.6 14.9s-14.5-5.6-14.5-14.9V19.2Zm38.4 0h7.8v4.6c2.1-3.5 5.2-5.3 9.3-5.3 5.6 0 9.8 3.8 9.8 11.3v23.6h-8.3V31.8c0-3.6-1.8-5.6-4.9-5.6-3.4 0-5.4 2.4-5.4 6.5v20.7h-8.3V19.2Z"/>
</svg>
