<svg xmlns="http://www.w3.org/2000/svg" viewBox="0 0 220 72" role="img" aria-labelledby="wildberriesTitle">
  <title id="wildberriesTitle">Wildberries</title>
  <path fill="#151515" d="M17 18.5h9.1l7 24.5 7.9-24.5h7.5L56.2 43l7.2-24.5h8.8L60 54h-7.7l-7.8-23.5L36.6 54H29L17 18.5Zm61.4 0h8.4V54h-8.4V18.5Zm18.4 0h8.4v28.3h17.6V54h-26V18.5Zm33.2 0h14.2c11.2 0 18.9 7.2 18.9 17.7S155.4 54 144.2 54H130V18.5Zm14.1 28.3c6.2 0 10.3-4.2 10.3-10.6 0-6.3-4.1-10.5-10.3-10.5h-5.7v21.1h5.7Zm27.5-28.3h17.1c4.2 0 7.5 1.1 9.5 3.2 1.6 1.6 2.4 3.7 2.4 6.2 0 3.9-2.1 6.4-5.1 7.8 4.2 1.4 6.8 3.9 6.8 8.6 0 6.1-5 9.7-13.5 9.7h-17.2V18.5Zm15 14.2c3.6 0 5.6-1.3 5.6-3.9 0-2.4-1.9-3.7-5.3-3.7h-7.2v7.6h6.9Zm1.6 14.7c3.7 0 5.8-1.5 5.8-4.1 0-2.5-2-4-6-4h-8.3v8.1h8.5Z"/>
</svg>
